<mxfile host="app.diagrams.net" modified="2022-07-21T05:22:18.092Z" agent="5.0 (Windows NT 10.0; Win64; x64) AppleWebKit/537.36 (KHTML, like Gecko) Chrome/103.0.5060.53 Safari/537.36 Edg/103.0.1264.37" etag="k1umV4VDgU1ZQe4y0Z2Q" version="20.1.3" type="github">
  <diagram id="-fRR2dkVTZ72hLFmcisK" name="Page-1">
    <mxGraphModel dx="1112" dy="606" grid="1" gridSize="10" guides="1" tooltips="1" connect="1" arrows="1" fold="1" page="1" pageScale="1" pageWidth="850" pageHeight="1100" math="0" shadow="0">
      <root>
        <mxCell id="0" />
        <mxCell id="1" parent="0" />
        <mxCell id="ZtiPiOkE6wUT-WbJC4Wy-1" value="Actor" style="shape=umlActor;verticalLabelPosition=bottom;verticalAlign=top;html=1;outlineConnect=0;" parent="1" vertex="1">
          <mxGeometry x="70" y="330" width="30" height="60" as="geometry" />
        </mxCell>
        <mxCell id="ZtiPiOkE6wUT-WbJC4Wy-2" value="Actor" style="shape=umlActor;verticalLabelPosition=bottom;verticalAlign=top;html=1;outlineConnect=0;direction=east;" parent="1" vertex="1">
          <mxGeometry x="690" y="330" width="30" height="60" as="geometry" />
        </mxCell>
        <mxCell id="ZtiPiOkE6wUT-WbJC4Wy-3" value="" style="whiteSpace=wrap;html=1;aspect=fixed;" parent="1" vertex="1">
          <mxGeometry x="130" y="200" width="540" height="540" as="geometry" />
        </mxCell>
        <mxCell id="ZtiPiOkE6wUT-WbJC4Wy-4" value="Twitter" style="text;html=1;resizable=0;autosize=1;align=center;verticalAlign=middle;points=[];fillColor=none;strokeColor=none;rounded=0;" parent="1" vertex="1">
          <mxGeometry x="355" y="220" width="60" height="30" as="geometry" />
        </mxCell>
        <mxCell id="ZtiPiOkE6wUT-WbJC4Wy-5" value="" style="ellipse;whiteSpace=wrap;html=1;" parent="1" vertex="1">
          <mxGeometry x="470" y="270" width="120" height="80" as="geometry" />
        </mxCell>
        <mxCell id="ZtiPiOkE6wUT-WbJC4Wy-6" value="" style="ellipse;whiteSpace=wrap;html=1;" parent="1" vertex="1">
          <mxGeometry x="170" y="275" width="120" height="80" as="geometry" />
        </mxCell>
        <mxCell id="ZtiPiOkE6wUT-WbJC4Wy-7" value="" style="ellipse;whiteSpace=wrap;html=1;" parent="1" vertex="1">
          <mxGeometry x="430" y="410" width="120" height="80" as="geometry" />
        </mxCell>
        <mxCell id="ZtiPiOkE6wUT-WbJC4Wy-8" value="" style="ellipse;whiteSpace=wrap;html=1;" parent="1" vertex="1">
          <mxGeometry x="280" y="490" width="120" height="80" as="geometry" />
        </mxCell>
        <mxCell id="ZtiPiOkE6wUT-WbJC4Wy-9" value="" style="ellipse;whiteSpace=wrap;html=1;" parent="1" vertex="1">
          <mxGeometry x="480" y="570" width="120" height="80" as="geometry" />
        </mxCell>
        <mxCell id="ZtiPiOkE6wUT-WbJC4Wy-10" value="Follower" style="text;html=1;resizable=0;autosize=1;align=center;verticalAlign=middle;points=[];fillColor=none;strokeColor=none;rounded=0;" parent="1" vertex="1">
          <mxGeometry x="670" y="410" width="70" height="30" as="geometry" />
        </mxCell>
        <mxCell id="ZtiPiOkE6wUT-WbJC4Wy-14" value="Author" style="text;html=1;resizable=0;autosize=1;align=center;verticalAlign=middle;points=[];fillColor=none;strokeColor=none;rounded=0;" parent="1" vertex="1">
          <mxGeometry x="55" y="415" width="60" height="30" as="geometry" />
        </mxCell>
        <mxCell id="ZtiPiOkE6wUT-WbJC4Wy-15" value="&lt;span style=&quot;font-size: 18px;&quot;&gt;Post tweet use case diagram -&amp;nbsp; 1st -&lt;br&gt;Twitter&lt;br&gt;&lt;/span&gt;" style="text;html=1;resizable=0;autosize=1;align=center;verticalAlign=middle;points=[];fillColor=none;strokeColor=none;rounded=0;" parent="1" vertex="1">
          <mxGeometry x="20" y="120" width="310" height="60" as="geometry" />
        </mxCell>
        <mxCell id="ZtiPiOkE6wUT-WbJC4Wy-17" value="" style="endArrow=none;html=1;rounded=0;fontSize=18;" parent="1" edge="1">
          <mxGeometry width="50" height="50" relative="1" as="geometry">
            <mxPoint x="630" y="410" as="sourcePoint" />
            <mxPoint x="680" y="360" as="targetPoint" />
          </mxGeometry>
        </mxCell>
        <mxCell id="ZtiPiOkE6wUT-WbJC4Wy-20" value="" style="endArrow=none;html=1;rounded=0;fontSize=18;" parent="1" edge="1">
          <mxGeometry width="50" height="50" relative="1" as="geometry">
            <mxPoint x="120" y="370" as="sourcePoint" />
            <mxPoint x="170" y="320" as="targetPoint" />
          </mxGeometry>
        </mxCell>
        <mxCell id="ZtiPiOkE6wUT-WbJC4Wy-21" value="" style="endArrow=none;html=1;rounded=0;fontSize=18;exitX=0.675;exitY=0.963;exitDx=0;exitDy=0;exitPerimeter=0;" parent="1" source="ZtiPiOkE6wUT-WbJC4Wy-6" edge="1">
          <mxGeometry width="50" height="50" relative="1" as="geometry">
            <mxPoint x="620" y="415" as="sourcePoint" />
            <mxPoint x="670" y="365" as="targetPoint" />
          </mxGeometry>
        </mxCell>
        <mxCell id="ZtiPiOkE6wUT-WbJC4Wy-22" value="" style="endArrow=none;dashed=1;html=1;rounded=0;fontSize=18;" parent="1" target="ZtiPiOkE6wUT-WbJC4Wy-5" edge="1">
          <mxGeometry width="50" height="50" relative="1" as="geometry">
            <mxPoint x="280" y="335" as="sourcePoint" />
            <mxPoint x="330" y="285" as="targetPoint" />
          </mxGeometry>
        </mxCell>
        <mxCell id="ZtiPiOkE6wUT-WbJC4Wy-23" value="&lt;font size=&quot;3&quot;&gt;&amp;lt;&amp;lt;extend&amp;gt;&amp;gt;&lt;/font&gt;" style="text;html=1;resizable=0;autosize=1;align=center;verticalAlign=middle;points=[];fillColor=none;strokeColor=none;rounded=0;fontSize=18;" parent="1" vertex="1">
          <mxGeometry x="305" y="300" width="110" height="40" as="geometry" />
        </mxCell>
        <mxCell id="ZtiPiOkE6wUT-WbJC4Wy-24" value="Attach Image&lt;br&gt;To Post" style="text;html=1;resizable=0;autosize=1;align=center;verticalAlign=middle;points=[];fillColor=none;strokeColor=none;rounded=0;fontSize=12;" parent="1" vertex="1">
          <mxGeometry x="485" y="290" width="90" height="40" as="geometry" />
        </mxCell>
        <mxCell id="ZtiPiOkE6wUT-WbJC4Wy-25" value="Write a Tweet" style="text;html=1;resizable=0;autosize=1;align=center;verticalAlign=middle;points=[];fillColor=none;strokeColor=none;rounded=0;fontSize=12;" parent="1" vertex="1">
          <mxGeometry x="180" y="300" width="100" height="30" as="geometry" />
        </mxCell>
        <mxCell id="ZtiPiOkE6wUT-WbJC4Wy-26" value="" style="endArrow=none;dashed=1;html=1;dashPattern=1 3;strokeWidth=2;rounded=0;fontSize=12;exitX=0.167;exitY=0.926;exitDx=0;exitDy=0;exitPerimeter=0;" parent="1" source="ZtiPiOkE6wUT-WbJC4Wy-3" edge="1">
          <mxGeometry width="50" height="50" relative="1" as="geometry">
            <mxPoint x="180" y="405" as="sourcePoint" />
            <mxPoint x="230" y="355" as="targetPoint" />
          </mxGeometry>
        </mxCell>
        <mxCell id="ZtiPiOkE6wUT-WbJC4Wy-27" value="" style="endArrow=none;dashed=1;html=1;dashPattern=1 3;strokeWidth=2;rounded=0;fontSize=12;entryX=0.556;entryY=0.481;entryDx=0;entryDy=0;entryPerimeter=0;" parent="1" target="ZtiPiOkE6wUT-WbJC4Wy-3" edge="1">
          <mxGeometry width="50" height="50" relative="1" as="geometry">
            <mxPoint x="230" y="475" as="sourcePoint" />
            <mxPoint x="280" y="425" as="targetPoint" />
          </mxGeometry>
        </mxCell>
        <mxCell id="ZtiPiOkE6wUT-WbJC4Wy-28" value="" style="endArrow=none;dashed=1;html=1;rounded=0;fontSize=12;entryX=0;entryY=0.5;entryDx=0;entryDy=0;" parent="1" target="ZtiPiOkE6wUT-WbJC4Wy-9" edge="1">
          <mxGeometry width="50" height="50" relative="1" as="geometry">
            <mxPoint x="220" y="690" as="sourcePoint" />
            <mxPoint x="270" y="620" as="targetPoint" />
          </mxGeometry>
        </mxCell>
        <mxCell id="ZtiPiOkE6wUT-WbJC4Wy-29" value="" style="endArrow=none;dashed=1;html=1;dashPattern=1 3;strokeWidth=2;rounded=0;fontSize=12;entryX=0;entryY=0.425;entryDx=0;entryDy=0;entryPerimeter=0;" parent="1" target="ZtiPiOkE6wUT-WbJC4Wy-8" edge="1">
          <mxGeometry width="50" height="50" relative="1" as="geometry">
            <mxPoint x="230" y="580" as="sourcePoint" />
            <mxPoint x="280" y="530" as="targetPoint" />
          </mxGeometry>
        </mxCell>
        <mxCell id="ZtiPiOkE6wUT-WbJC4Wy-32" value="" style="endArrow=none;html=1;rounded=0;fontSize=12;exitX=0.926;exitY=0.778;exitDx=0;exitDy=0;exitPerimeter=0;" parent="1" source="ZtiPiOkE6wUT-WbJC4Wy-3" edge="1">
          <mxGeometry width="50" height="50" relative="1" as="geometry">
            <mxPoint x="580" y="460" as="sourcePoint" />
            <mxPoint x="630" y="410" as="targetPoint" />
          </mxGeometry>
        </mxCell>
        <mxCell id="ZtiPiOkE6wUT-WbJC4Wy-35" value="" style="endArrow=none;html=1;rounded=0;fontSize=12;" parent="1" edge="1">
          <mxGeometry width="50" height="50" relative="1" as="geometry">
            <mxPoint x="550" y="450" as="sourcePoint" />
            <mxPoint x="630" y="410" as="targetPoint" />
          </mxGeometry>
        </mxCell>
        <mxCell id="ZtiPiOkE6wUT-WbJC4Wy-39" value="" style="endArrow=none;html=1;rounded=0;fontSize=12;exitX=1;exitY=0.5;exitDx=0;exitDy=0;" parent="1" source="ZtiPiOkE6wUT-WbJC4Wy-8" edge="1">
          <mxGeometry width="50" height="50" relative="1" as="geometry">
            <mxPoint x="575" y="555" as="sourcePoint" />
            <mxPoint x="625" y="505" as="targetPoint" />
          </mxGeometry>
        </mxCell>
        <mxCell id="ZtiPiOkE6wUT-WbJC4Wy-41" value="" style="endArrow=none;html=1;rounded=0;fontSize=12;exitX=0.975;exitY=0.713;exitDx=0;exitDy=0;exitPerimeter=0;" parent="1" source="ZtiPiOkE6wUT-WbJC4Wy-9" edge="1">
          <mxGeometry width="50" height="50" relative="1" as="geometry">
            <mxPoint x="580" y="670" as="sourcePoint" />
            <mxPoint x="630" y="620" as="targetPoint" />
          </mxGeometry>
        </mxCell>
        <mxCell id="ZtiPiOkE6wUT-WbJC4Wy-44" value="&amp;lt;&amp;lt;Include&amp;gt;&amp;gt;" style="text;html=1;resizable=0;autosize=1;align=center;verticalAlign=middle;points=[];fillColor=none;strokeColor=none;rounded=0;fontSize=12;" parent="1" vertex="1">
          <mxGeometry x="185" y="385" width="90" height="30" as="geometry" />
        </mxCell>
        <mxCell id="ZtiPiOkE6wUT-WbJC4Wy-45" value="&amp;nbsp; &amp;nbsp; &amp;nbsp;Message" style="text;html=1;resizable=0;autosize=1;align=center;verticalAlign=middle;points=[];fillColor=none;strokeColor=none;rounded=0;fontSize=12;" parent="1" vertex="1">
          <mxGeometry x="485" y="595" width="90" height="30" as="geometry" />
        </mxCell>
        <mxCell id="ZtiPiOkE6wUT-WbJC4Wy-46" value="Like" style="text;html=1;resizable=0;autosize=1;align=center;verticalAlign=middle;points=[];fillColor=none;strokeColor=none;rounded=0;fontSize=12;" parent="1" vertex="1">
          <mxGeometry x="315" y="520" width="50" height="30" as="geometry" />
        </mxCell>
        <mxCell id="ZtiPiOkE6wUT-WbJC4Wy-47" value="Retweet" style="text;html=1;resizable=0;autosize=1;align=center;verticalAlign=middle;points=[];fillColor=none;strokeColor=none;rounded=0;fontSize=12;" parent="1" vertex="1">
          <mxGeometry x="455" y="435" width="70" height="30" as="geometry" />
        </mxCell>
        <mxCell id="ZtiPiOkE6wUT-WbJC4Wy-48" value="" style="shape=flexArrow;endArrow=classic;html=1;rounded=0;fontSize=12;entryX=0;entryY=0.5;entryDx=0;entryDy=0;" parent="1" target="ZtiPiOkE6wUT-WbJC4Wy-7" edge="1">
          <mxGeometry width="50" height="50" relative="1" as="geometry">
            <mxPoint x="335" y="475" as="sourcePoint" />
            <mxPoint x="385" y="425" as="targetPoint" />
          </mxGeometry>
        </mxCell>
        <mxCell id="ZtiPiOkE6wUT-WbJC4Wy-50" value="" style="shape=flexArrow;endArrow=classic;html=1;rounded=0;fontSize=12;" parent="1" edge="1">
          <mxGeometry width="50" height="50" relative="1" as="geometry">
            <mxPoint x="230" y="580" as="sourcePoint" />
            <mxPoint x="280" y="530" as="targetPoint" />
          </mxGeometry>
        </mxCell>
        <mxCell id="ZtiPiOkE6wUT-WbJC4Wy-51" value="" style="shape=flexArrow;endArrow=classic;html=1;rounded=0;fontSize=12;" parent="1" edge="1">
          <mxGeometry width="50" height="50" relative="1" as="geometry">
            <mxPoint x="380" y="650" as="sourcePoint" />
            <mxPoint x="480" y="610" as="targetPoint" />
          </mxGeometry>
        </mxCell>
      </root>
    </mxGraphModel>
  </diagram>
</mxfile>
